PathFileType	4	(X/Y/Z)	Run_300 01
DataRate	CameraRate	NumFrames	NumMarkers	Units	OrigDataRate	OrigDataStartFrame	OrigNumFrames
120	120	4	42	mm	120	15	128
Frame#	Time	LASI			RASI			LPSI			RPSI			RTH1			RTH3			LTH1			LTH2			LTH3			RTB1			RTB2			RTB3			LTB1			LTB2			LTB3			RCAL			RTOE			RMT5			LCAL			LTOE			LMT5			LACR			RACR			CLAV			C7			RUA1			RUA2			RUA3			RLEL			RMEL			LUA1			LUA2			LUA3			LLEL			LMEL			RFAsuperior			RFAradius			RFAulna			LFAsuperior			LFAradius			LFAulna			RTH2			
		X1	Y1	Z1	X2	Y2	Z2	X3	Y3	Z3	X4	Y4	Z4	X5	Y5	Z5	X6	Y6	Z6	X7	Y7	Z7	X8	Y8	Z8	X9	Y9	Z9	X10	Y10	Z10	X11	Y11	Z11	X12	Y12	Z12	X13	Y13	Z13	X14	Y14	Z14	X15	Y15	Z15	X16	Y16	Z16	X17	Y17	Z17	X18	Y18	Z18	X19	Y19	Z19	X20	Y20	Z20	X21	Y21	Z21	X22	Y22	Z22	X23	Y23	Z23	X24	Y24	Z24	X25	Y25	Z25	X26	Y26	Z26	X27	Y27	Z27	X28	Y28	Z28	X29	Y29	Z29	X30	Y30	Z30	X31	Y31	Z31	X32	Y32	Z32	X33	Y33	Z33	X34	Y34	Z34	X35	Y35	Z35	X36	Y36	Z36	X37	Y37	Z37	X38	Y38	Z38	X39	Y39	Z39	X40	Y40	Z40	X41	Y41	Z41	X42	Y42	Z42	

1	0.15	1085.553181	1032.088839	-436.930991	1059.841137	1044.814924	-209.172285	916.7375029999999	1079.415045	-397.365805	902.575461	1076.294135	-299.24173	1027.120513	885.488999	-149.704683	1115.459977	661.299558	-197.143253	1001.128706	859.709461	-498.405339	1042.969385	747.7079680000001	-455.549211	941.504453	643.22004	-457.049926	1232.990208	455.3661	-256.506516	1187.680642	388.470927	-200.282338	1245.732417	275.969986	-264.872808	828.935159	437.269845	-392.466994	727.100681	434.968721	-450.557943	641.7219239999999	374.853041	-390.410298	1147.232798	129.355976	-307.235599	1358.231656	116.415399	-314.091053	1336.910797	61.78277	-223.313363	507.876034	446.289426	-406.134365	505.571952	255.211885	-324.06103	464.692986	237.146725	-423.167989	1079.046467	1523.790146	-494.368387	1011.196386	1503.962948	-142.568436	1106.380611	1463.561691	-280.055538	1007.839329	1549.627932	-330.70464	953.538744	1450.964256	-101.808325	926.093941	1365.834858	-120.602097	849.905257	1403.84579	-140.078897	770.07662	1317.027552	-129.214816	780.959878	1314.270798	-196.5729	1056.935709	1456.719037	-556.134516	987.357115	1413.555868	-555.281152	1045.419298	1358.229921	-592.44158	973.280242	1262.752432	-638.638176	918.467795	1263.440359	-587.15791	821.083359	1245.151326	-93.553844	897.5938190000001	1074.380558	-84.574549	839.876572	1053.066453	-112.832859	1050.954618	1261.834162	-603.10308	1160.206087	1292.380908	-448.80747	1166.05845	1225.157783	-449.20507	1144.439704	763.636343	-174.059277	
2	0.158333	1085.909545	1027.665907	-436.968903	1059.127113	1040.743303	-208.683757	916.416351	1072.262432	-398.015641	902.17618	1069.737282	-299.98983	1028.393178	881.67358	-150.427321	1115.902985	657.666557	-197.929564	1005.823346	854.005177	-498.578356	1049.241134	743.242963	-456.630132	950.017059	636.652216	-457.135366	1229.305537	448.149268	-258.675487	1183.29656	383.159203	-200.865789	1236.434428	268.401641	-266.353857	837.8921	433.962202	-393.394841	735.450206	437.962153	-451.356702	647.497228	381.381135	-391.793889	1131.609776	125.636748	-305.668956	1341.203103	104.876607	-320.175584	1321.114871	52.896247	-226.191521	517.391506	460.101845	-405.968816	505.879644	267.80754	-327.550291	463.74241	253.692118	-426.466372	1077.789107	1518.460825	-493.088101	1011.902032	1497.227013	-140.782101	1106.244122	1457.691129	-279.269372	1007.521237	1544.534403	-328.970448	954.660154	1442.986707	-99.644874	928.027021	1357.538984	-118.565269	851.109322	1394.662175	-136.847576	772.609744	1307.169963	-125.561613	782.479081	1305.07003	-193.371583	1054.273865	1452.245182	-554.765011	984.0513529999999	1409.865447	-553.0365399999999	1040.895926	1353.970963	-591.319161	967.05115	1259.955895	-637.323143	912.968687	1261.258149	-585.115831	824.751584	1235.283354	-91.49673799999999	902.687158	1065.080978	-84.67826700000001	844.863995	1043.733465	-112.765354	1044.792747	1255.92193	-602.322711	1157.50216	1277.741315	-448.774627	1160.599992	1210.6804	-451.982595	1146.167777	761.057289	-174.903279	
3	0.166667	1086.218867	1022.236398	-437.166632	1058.425774	1035.95878	-208.02152	915.992784	1064.06696	-398.662795	901.7656490000001	1062.590931	-300.51896	1030.006189	877.223217	-151.733825	1116.117593	653.13332	-198.726409	1009.907711	847.770991	-498.907535	1054.706853	738.269751	-458.794945	958.06175	629.501743	-457.218491	1224.979391	439.96953	-260.802337	1178.198688	376.946532	-201.582523	1224.610984	259.920207	-268.311331	847.671787	430.254212	-394.686012	744.950242	440.320298	-452.267442	654.7710049999999	387.396809	-393.212906	1112.345699	121.241556	-304.413777	1320.766985	93.99344499999999	-325.433228	1301.980434	46.339436	-227.781532	528.6149809999999	472.982338	-405.373656	508.40625	279.658223	-331.256067	465.35486	269.804981	-430.082605	1076.437715	1512.378598	-491.891804	1012.596767	1489.650493	-139.039435	1106.079064	1451.068035	-278.500095	1007.177106	1538.675494	-327.316974	955.834923	1434.140745	-97.64970700000001	930.043194	1348.365689	-116.40254	852.28923	1384.365998	-133.370963	775.4463929999999	1296.031536	-121.576625	784.201628	1294.55762	-189.810265	1051.500539	1446.964574	-553.41521	980.656643	1405.490436	-550.8175660000001	1036.169642	1348.923084	-590.032599	960.476586	1256.595463	-635.882591	907.191865	1258.491189	-582.8488620000001	828.72736	1224.205337	-89.10069799999999	908.4081210000001	1054.712727	-84.827748	850.69576	1033.239716	-112.65284	1038.166102	1249.339215	-601.448391	1154.317559	1261.806715	-449.137193	1154.405006	1195.157348	-455.501846	1147.760559	757.327856	-176.459454	
4	0.175	1086.41538	1015.92132	-437.512981	1057.78962	1030.461479	-207.302776	915.3858770000001	1055.14287	-399.225513	901.237839	1054.913015	-300.813881	1031.847152	871.9078929999999	-153.353846	1116.187024	647.478098	-199.512717	1013.282812	840.975218	-499.281877	1059.540236	732.6786990000001	-461.591479	966.07188	621.6070120000001	-457.437505	1219.793623	430.956233	-263.222787	1171.884953	369.902034	-203.167186	1209.510527	250.805118	-271.298721	858.1393420000001	426.289276	-396.535884	755.436271	442.035615	-453.374698	663.290931	392.972633	-394.705681	1089.110968	115.685487	-304.120233	1297.171188	85.881461	-328.955243	1279.680208	43.11083	-228.081299	540.994231	484.890886	-404.508884	513.176609	290.733024	-334.992436	469.583462	285.138624	-433.904718	1074.959899	1505.682394	-490.826477	1013.277096	1481.327272	-137.340034	1105.896148	1443.822903	-277.7672	1006.782811	1532.129116	-325.742703	957.097552	1424.517017	-95.780558	932.1451	1338.400536	-114.203005	853.5663929999999	1373.110163	-129.682219	778.578763	1283.747414	-117.38262	786.268474	1282.801517	-185.880845	1048.56853	1440.937382	-552.148241	977.148423	1400.477004	-548.616329	1031.266313	1343.114819	-588.574624	953.645924	1252.750576	-634.318171	901.177429	1255.242212	-580.385174	833.044496	1212.102633	-86.389732	914.7500690000001	1043.499293	-85.078276	857.286237	1021.746291	-112.511589	1031.170277	1242.161716	-600.577728	1150.513879	1244.835845	-449.750939	1147.431245	1178.820748	-459.46226	1148.8841	752.103304	-178.623312	
